<svg id="svg" version="1.1" xmlns="http://www.w3.org/2000/svg" xmlns:xlink="http://www.w3.org/1999/xlink" width="400" height="400" viewBox="0, 0, 400,400"><g id="svgg"><path id="path0" d="M219.126 99.199 C 219.057 99.396,217.695 99.593,216.100 99.639 C 214.505 99.684,213.200 99.874,213.200 100.061 C 213.200 100.247,212.558 100.400,211.774 100.400 C 210.989 100.400,210.044 100.560,209.674 100.755 C 209.303 100.950,208.126 101.195,207.058 101.299 C 205.389 101.461,204.429 102.009,204.406 102.813 C 204.403 102.930,203.545 103.257,202.500 103.539 C 201.455 103.822,200.287 104.221,199.905 104.427 C 199.523 104.632,198.936 104.800,198.600 104.800 C 198.264 104.800,197.677 104.965,197.295 105.166 C 196.428 105.623,194.349 106.518,192.000 107.444 C 191.010 107.834,189.337 108.659,188.282 109.277 C 187.228 109.895,186.277 110.400,186.170 110.400 C 185.732 110.400,178.620 114.907,176.105 116.779 C 166.369 124.026,157.126 134.361,152.038 143.690 C 151.405 144.851,150.541 145.963,150.118 146.163 C 149.420 146.492,146.400 152.199,146.400 153.188 C 146.400 153.415,146.231 153.600,146.025 153.600 C 145.819 153.600,145.651 153.915,145.652 154.300 C 145.655 155.319,144.660 158.000,144.279 158.000 C 144.099 158.000,144.062 158.176,144.195 158.392 C 144.328 158.607,144.215 159.192,143.943 159.692 C 143.413 160.667,143.377 160.812,142.966 163.700 C 142.818 164.745,142.539 165.600,142.348 165.600 C 142.157 165.600,142.000 165.891,142.000 166.247 C 142.000 166.753,141.761 166.833,140.900 166.614 C 140.295 166.461,139.124 166.241,138.297 166.126 C 137.471 166.010,136.695 165.755,136.574 165.558 C 136.452 165.361,135.363 165.200,134.153 165.200 C 132.943 165.200,132.052 165.039,132.174 164.842 C 132.461 164.378,119.328 164.305,118.454 164.766 C 118.094 164.955,116.990 165.225,116.000 165.365 C 115.010 165.505,113.435 165.729,112.500 165.862 C 111.565 165.995,110.800 166.261,110.800 166.452 C 110.800 166.643,110.451 166.800,110.024 166.800 C 109.597 166.800,109.136 166.980,109.000 167.200 C 108.864 167.420,108.234 167.600,107.600 167.600 C 106.966 167.600,106.336 167.780,106.200 168.000 C 106.064 168.220,105.603 168.400,105.176 168.400 C 104.749 168.400,104.399 168.535,104.397 168.700 C 104.393 169.059,102.456 170.000,101.720 170.000 C 101.434 170.000,101.200 170.180,101.200 170.400 C 101.200 170.620,100.840 170.800,100.400 170.800 C 99.960 170.800,99.600 170.980,99.600 171.200 C 99.600 171.420,99.364 171.600,99.075 171.600 C 98.787 171.600,98.164 171.960,97.692 172.400 C 97.220 172.840,96.646 173.200,96.417 173.200 C 96.188 173.200,96.000 173.380,96.000 173.600 C 96.000 173.820,95.730 174.000,95.400 174.000 C 95.070 174.000,94.800 174.180,94.800 174.400 C 94.800 174.620,94.561 174.800,94.270 174.800 C 93.978 174.800,93.303 175.267,92.770 175.838 C 92.236 176.409,91.305 177.134,90.700 177.448 C 90.095 177.763,89.600 178.297,89.600 178.634 C 89.600 178.971,89.451 179.155,89.270 179.043 C 88.903 178.816,84.800 183.016,84.800 183.619 C 84.800 183.828,84.620 184.000,84.400 184.000 C 84.180 184.000,84.000 184.180,84.000 184.400 C 84.000 184.620,83.663 185.138,83.250 185.550 C 82.837 185.963,82.387 186.548,82.250 186.850 C 82.057 187.275,81.947 187.286,81.767 186.900 C 81.619 186.583,80.669 186.400,79.167 186.400 C 77.856 186.400,76.800 186.222,76.800 186.000 C 76.800 185.769,75.533 185.600,73.800 185.600 C 72.150 185.600,70.800 185.450,70.800 185.267 C 70.800 185.083,70.527 184.933,70.194 184.933 C 69.825 184.933,69.666 185.180,69.787 185.567 C 69.896 185.915,70.898 189.350,72.012 193.200 C 74.363 201.319,74.628 202.126,76.599 207.204 C 77.410 209.292,78.212 211.360,78.383 211.800 C 80.484 217.222,82.232 221.063,85.883 228.280 C 89.664 235.753,96.369 247.056,99.954 252.000 C 101.310 253.870,103.414 256.802,104.629 258.515 C 105.845 260.229,108.492 263.559,110.512 265.915 C 112.532 268.272,114.632 270.740,115.179 271.400 C 115.726 272.060,119.780 276.210,124.187 280.623 C 131.558 288.003,133.378 289.686,137.727 293.142 C 139.951 294.910,142.400 297.161,142.400 297.439 C 142.400 297.571,142.112 298.336,141.759 299.140 C 141.407 299.943,140.936 301.050,140.713 301.600 C 140.489 302.150,140.148 302.913,139.953 303.295 C 139.759 303.677,139.600 304.496,139.600 305.115 C 139.600 305.734,139.437 306.411,139.239 306.620 C 138.811 307.070,138.431 309.746,138.147 314.300 L 137.941 317.600 101.871 317.639 C 82.032 317.660,64.945 317.670,63.900 317.660 C 62.855 317.651,62.000 317.801,62.000 317.993 C 62.000 318.190,78.612 318.361,99.989 318.385 L 137.978 318.427 138.171 317.514 C 138.277 317.011,138.457 315.430,138.572 314.000 C 138.871 310.263,139.748 305.351,140.393 303.800 C 140.576 303.360,140.996 302.280,141.326 301.400 C 144.415 293.166,151.005 285.034,157.615 281.295 C 158.597 280.740,160.146 279.867,161.057 279.354 C 167.679 275.630,177.403 274.020,185.000 275.390 C 186.980 275.747,189.168 276.138,189.861 276.259 L 191.123 276.478 191.337 272.539 C 191.600 267.709,192.056 265.013,193.527 259.600 C 196.172 249.869,204.804 237.356,213.000 231.373 C 213.880 230.730,214.690 230.112,214.800 229.999 C 215.220 229.567,219.905 226.842,222.240 225.672 C 235.974 218.790,253.876 218.241,267.200 224.294 C 272.286 226.604,275.200 228.117,275.200 228.448 C 275.200 228.641,275.436 228.800,275.725 228.800 C 276.013 228.800,276.598 229.115,277.025 229.500 C 277.451 229.885,278.595 230.740,279.566 231.400 C 287.374 236.705,295.910 248.833,299.026 259.049 L 300.072 262.477 301.536 262.255 C 307.538 261.346,309.835 261.172,312.950 261.389 C 316.082 261.607,317.671 261.913,321.600 263.054 C 325.467 264.176,332.782 269.301,335.457 272.761 C 337.365 275.229,337.305 275.205,340.211 274.655 C 343.452 274.042,352.451 274.084,355.400 274.726 C 356.720 275.013,358.387 275.347,359.104 275.468 C 359.821 275.589,360.506 275.849,360.627 276.044 C 360.748 276.240,361.152 276.403,361.524 276.407 C 362.188 276.415,365.543 278.017,369.308 280.125 C 373.823 282.652,380.091 288.898,383.333 294.100 C 383.710 294.705,384.167 295.200,384.348 295.200 C 384.873 295.200,386.409 293.743,386.154 293.487 C 386.026 293.360,386.300 293.020,386.761 292.731 C 387.222 292.443,387.600 291.975,387.600 291.691 C 387.600 291.407,387.863 291.074,388.185 290.950 C 388.506 290.827,388.884 290.366,389.024 289.926 C 389.163 289.485,389.800 288.351,390.439 287.404 C 391.077 286.458,391.600 285.485,391.600 285.242 C 391.600 284.999,391.780 284.800,392.000 284.800 C 392.220 284.800,392.400 284.429,392.400 283.976 C 392.400 283.523,392.580 283.264,392.800 283.400 C 393.020 283.536,393.200 283.266,393.200 282.800 C 393.200 282.334,393.380 282.064,393.600 282.200 C 393.827 282.340,394.000 282.004,394.000 281.424 C 394.000 280.861,394.180 280.400,394.400 280.400 C 394.620 280.400,394.800 279.950,394.800 279.400 C 394.800 278.850,394.980 278.400,395.200 278.400 C 395.420 278.400,395.600 278.040,395.600 277.600 C 395.600 277.160,395.741 276.800,395.913 276.800 C 396.085 276.800,396.266 276.313,396.315 275.718 C 396.364 275.122,396.584 274.456,396.802 274.238 C 397.021 274.019,397.200 273.415,397.200 272.896 C 397.200 272.369,397.377 272.062,397.600 272.200 C 397.838 272.347,398.000 271.879,398.000 271.047 C 398.000 270.277,398.180 269.536,398.400 269.400 C 398.620 269.264,398.800 268.458,398.800 267.610 C 398.800 266.731,399.015 265.995,399.300 265.900 C 399.687 265.771,399.800 262.631,399.800 252.000 C 399.800 241.369,399.687 238.229,399.300 238.100 C 399.025 238.008,398.800 237.333,398.800 236.600 C 398.800 235.867,398.628 235.207,398.418 235.133 C 398.207 235.060,397.990 234.325,397.936 233.500 C 397.881 232.675,397.693 232.000,397.518 232.000 C 397.343 232.000,397.200 231.651,397.200 231.224 C 397.200 230.797,397.020 230.336,396.800 230.200 C 396.580 230.064,396.390 229.648,396.377 229.276 C 396.364 228.904,395.930 227.703,395.411 226.606 C 394.893 225.510,394.554 224.475,394.658 224.306 C 394.762 224.138,394.657 224.000,394.424 224.000 C 394.191 224.000,394.000 223.722,394.000 223.383 C 394.000 223.044,393.640 222.380,393.200 221.908 C 392.760 221.436,392.396 220.768,392.391 220.425 C 392.386 220.081,392.030 219.350,391.600 218.800 C 391.170 218.250,390.814 217.650,390.809 217.467 C 390.804 217.284,390.170 216.366,389.400 215.426 C 388.630 214.486,388.000 213.511,388.000 213.259 C 388.000 213.006,387.820 212.800,387.600 212.800 C 387.380 212.800,387.200 212.605,387.200 212.367 C 387.200 212.128,386.570 211.321,385.800 210.574 C 385.030 209.826,384.400 209.031,384.400 208.807 C 384.400 208.583,384.145 208.400,383.834 208.400 C 383.522 208.400,383.028 207.860,382.736 207.200 C 382.444 206.540,382.094 206.000,381.958 206.000 C 381.823 206.000,381.057 205.382,380.256 204.627 C 379.455 203.872,378.800 203.328,378.800 203.418 C 378.800 203.508,377.861 202.686,376.713 201.591 C 375.564 200.496,374.401 199.600,374.127 199.600 C 373.852 199.600,373.435 199.240,373.200 198.800 C 372.965 198.360,372.577 198.000,372.340 198.000 C 372.102 198.000,371.073 197.393,370.054 196.651 C 369.034 195.908,367.795 195.176,367.300 195.024 C 366.805 194.871,366.400 194.599,366.400 194.420 C 366.400 194.240,365.995 193.962,365.500 193.800 C 365.005 193.639,364.510 193.477,364.400 193.440 C 364.290 193.402,363.819 193.159,363.353 192.900 C 362.887 192.640,362.392 192.542,362.253 192.681 C 362.114 192.820,362.000 192.723,362.000 192.467 C 362.000 192.210,361.651 192.000,361.224 192.000 C 360.797 192.000,360.336 191.820,360.200 191.600 C 360.064 191.380,359.513 191.200,358.976 191.200 C 358.439 191.200,358.000 191.020,358.000 190.800 C 358.000 190.580,357.460 190.400,356.800 190.400 C 356.140 190.400,355.600 190.220,355.600 190.000 C 355.600 189.780,355.148 189.600,354.595 189.600 C 354.042 189.600,353.277 189.442,352.895 189.249 C 351.574 188.582,349.338 188.000,348.095 188.000 C 347.409 188.000,346.736 187.820,346.600 187.600 C 346.464 187.380,345.183 187.200,343.753 187.200 C 342.323 187.200,341.245 187.050,341.358 186.868 C 341.660 186.379,331.244 186.266,330.659 186.751 C 330.391 186.973,328.603 187.190,326.686 187.232 C 324.769 187.274,323.200 187.446,323.200 187.614 C 323.200 187.782,322.435 188.022,321.500 188.147 C 317.294 188.710,316.419 188.907,316.626 189.242 C 316.748 189.439,316.657 189.600,316.424 189.600 C 316.060 189.600,315.719 181.254,315.979 178.700 C 316.018 178.315,315.874 178.000,315.659 178.000 C 315.444 178.000,315.171 176.875,315.052 175.500 C 314.691 171.336,314.332 169.022,313.980 168.587 C 313.796 168.359,313.602 167.334,313.549 166.309 C 313.496 165.283,313.306 164.535,313.126 164.645 C 312.947 164.756,312.800 164.196,312.800 163.400 C 312.800 162.537,312.639 162.053,312.400 162.200 C 312.178 162.337,311.997 162.036,311.994 161.524 C 311.987 160.529,311.123 157.790,310.674 157.341 C 310.523 157.190,310.400 156.567,310.400 155.957 C 310.400 155.347,310.220 154.736,310.000 154.600 C 309.780 154.464,309.600 153.993,309.600 153.553 C 309.600 153.113,309.453 152.844,309.273 152.955 C 309.093 153.066,308.720 152.492,308.445 151.679 C 307.445 148.728,307.101 148.014,306.774 148.216 C 306.592 148.329,306.505 148.092,306.583 147.689 C 306.741 146.870,304.261 142.673,303.857 143.076 C 303.716 143.218,303.600 143.033,303.600 142.667 C 303.600 142.300,303.420 142.000,303.200 142.000 C 302.980 142.000,302.799 141.775,302.798 141.500 C 302.797 141.225,302.267 140.435,301.620 139.745 C 300.973 139.055,300.554 138.380,300.688 138.245 C 300.823 138.110,300.693 138.000,300.400 138.000 C 300.107 138.000,299.973 137.894,300.103 137.764 C 300.232 137.634,299.818 136.984,299.183 136.319 C 298.547 135.654,297.803 134.603,297.529 133.984 C 297.255 133.364,296.888 132.945,296.715 133.052 C 296.542 133.160,296.400 133.012,296.400 132.724 C 296.399 132.436,295.954 131.683,295.411 131.051 C 294.867 130.419,294.316 129.564,294.184 129.151 C 294.053 128.738,293.778 128.400,293.573 128.400 C 293.368 128.400,293.200 128.228,293.200 128.018 C 293.200 127.509,291.272 125.600,290.758 125.600 C 290.535 125.600,290.464 125.420,290.600 125.200 C 290.736 124.980,290.702 124.796,290.524 124.791 C 290.126 124.779,287.002 122.000,287.387 122.000 C 287.538 122.000,287.063 121.509,286.331 120.908 C 285.599 120.307,284.709 119.497,284.353 119.108 C 283.997 118.719,283.546 118.400,283.351 118.400 C 283.156 118.400,282.187 117.638,281.198 116.707 C 280.209 115.775,279.369 115.100,279.332 115.207 C 279.295 115.313,278.798 114.995,278.229 114.500 C 277.660 114.005,277.056 113.600,276.888 113.600 C 276.719 113.600,275.609 112.959,274.420 112.176 C 273.231 111.393,272.065 110.718,271.829 110.676 C 271.593 110.634,271.272 110.420,271.115 110.200 C 270.958 109.980,270.688 109.788,270.515 109.774 C 269.829 109.716,266.800 108.193,266.800 107.906 C 266.800 107.738,266.440 107.600,266.000 107.600 C 265.560 107.600,265.200 107.420,265.200 107.200 C 265.200 106.980,264.840 106.800,264.400 106.800 C 263.960 106.800,263.600 106.620,263.600 106.400 C 263.600 106.180,263.251 106.000,262.824 106.000 C 262.397 106.000,261.936 105.820,261.800 105.600 C 261.664 105.380,261.124 105.200,260.600 105.200 C 260.076 105.200,259.536 105.020,259.400 104.800 C 259.264 104.580,258.713 104.400,258.176 104.400 C 257.639 104.400,257.200 104.220,257.200 104.000 C 257.200 103.780,256.739 103.600,256.176 103.600 C 255.596 103.600,255.260 103.427,255.400 103.200 C 255.549 102.958,255.004 102.800,254.024 102.800 C 253.131 102.800,252.400 102.620,252.400 102.400 C 252.400 102.180,251.781 102.000,251.024 102.000 C 250.267 102.000,249.536 101.820,249.400 101.600 C 249.264 101.380,248.724 101.200,248.200 101.200 C 247.676 101.200,247.136 101.020,247.000 100.800 C 246.864 100.580,245.809 100.400,244.656 100.400 C 243.503 100.400,242.318 100.175,242.021 99.900 C 241.583 99.493,241.545 99.512,241.818 100.000 C 242.083 100.474,242.032 100.510,241.577 100.170 C 241.055 99.782,239.341 99.544,236.300 99.440 C 235.695 99.419,235.200 99.273,235.200 99.115 C 235.200 98.695,219.275 98.778,219.126 99.199 M59.952 185.248 C 59.602 185.476,60.468 185.585,62.311 185.547 C 63.913 185.514,65.306 185.352,65.407 185.188 C 65.671 184.761,60.615 184.817,59.952 185.248 M54.231 185.950 C 54.112 186.143,54.461 186.300,55.007 186.300 C 55.553 186.300,56.000 186.143,56.000 185.950 C 56.000 185.758,55.651 185.600,55.224 185.600 C 54.797 185.600,54.350 185.758,54.231 185.950 M32.441 193.751 C 32.180 194.065,31.525 194.433,30.984 194.568 C 30.443 194.704,30.000 194.992,30.000 195.208 C 30.000 195.423,29.730 195.600,29.400 195.600 C 29.070 195.600,28.800 195.774,28.800 195.987 C 28.800 196.651,30.719 195.660,33.167 193.731 C 33.258 193.659,33.239 193.506,33.124 193.390 C 33.008 193.275,32.701 193.437,32.441 193.751 M27.604 196.996 C 27.332 197.323,26.995 197.522,26.855 197.437 C 26.715 197.352,26.244 197.759,25.810 198.341 C 25.093 199.302,25.176 199.277,26.710 198.066 C 28.248 196.853,28.666 196.400,28.249 196.400 C 28.166 196.400,27.876 196.668,27.604 196.996 M23.000 200.230 C 22.560 200.562,22.227 200.962,22.260 201.117 C 22.293 201.273,22.194 201.367,22.040 201.327 C 21.885 201.286,21.542 201.601,21.276 202.027 C 21.011 202.452,20.930 202.794,21.097 202.787 C 21.527 202.768,23.200 201.330,23.200 200.980 C 23.200 200.819,23.515 200.449,23.900 200.157 C 24.285 199.865,24.420 199.625,24.200 199.625 C 23.980 199.625,23.440 199.897,23.000 200.230 M15.812 207.563 C 15.679 207.983,15.306 208.427,14.985 208.550 C 14.663 208.674,14.400 209.036,14.400 209.354 C 14.400 209.673,14.175 210.024,13.900 210.135 C 13.591 210.260,13.571 210.349,13.848 210.368 C 14.095 210.386,14.725 209.771,15.248 209.003 C 15.772 208.234,16.335 207.604,16.500 207.603 C 16.665 207.601,16.800 207.420,16.800 207.200 C 16.800 206.500,16.063 206.770,15.812 207.563 M10.289 214.805 C 9.910 215.247,9.600 215.774,9.600 215.976 C 9.600 216.178,9.319 216.624,8.974 216.968 C 8.630 217.312,8.469 217.788,8.615 218.024 C 8.762 218.261,9.315 217.598,9.847 216.547 C 10.378 215.498,11.035 214.498,11.306 214.326 C 11.578 214.153,11.615 214.009,11.389 214.006 C 11.163 214.003,10.668 214.362,10.289 214.805 M2.800 229.400 C 2.800 229.730,2.980 230.000,3.200 230.000 C 3.420 230.000,3.600 229.730,3.600 229.400 C 3.600 229.070,3.420 228.800,3.200 228.800 C 2.980 228.800,2.800 229.070,2.800 229.400 M2.000 231.400 C 2.000 231.730,2.180 232.000,2.400 232.000 C 2.620 232.000,2.800 231.730,2.800 231.400 C 2.800 231.070,2.620 230.800,2.400 230.800 C 2.180 230.800,2.000 231.070,2.000 231.400 M0.400 238.176 C 0.400 239.402,0.628 239.501,0.916 238.400 C 1.031 237.961,0.962 237.500,0.762 237.377 C 0.563 237.254,0.400 237.613,0.400 238.176 M0.109 243.200 C 0.109 244.190,0.187 244.595,0.282 244.100 C 0.378 243.605,0.378 242.795,0.282 242.300 C 0.187 241.805,0.109 242.210,0.109 243.200 M1.200 268.600 C 1.200 268.930,1.380 269.200,1.600 269.200 C 1.820 269.200,2.000 268.930,2.000 268.600 C 2.000 268.270,1.820 268.000,1.600 268.000 C 1.380 268.000,1.200 268.270,1.200 268.600 M4.400 277.339 C 4.400 277.788,5.718 280.015,5.885 279.848 C 6.153 279.580,5.090 277.200,4.702 277.200 C 4.536 277.200,4.400 277.262,4.400 277.339 M11.747 290.599 C 11.989 291.112,12.317 291.451,12.476 291.353 C 12.881 291.102,12.442 290.102,11.822 289.864 C 11.417 289.709,11.401 289.867,11.747 290.599 M14.200 293.600 C 14.598 294.040,14.761 294.403,14.562 294.406 C 14.363 294.409,14.470 294.587,14.800 294.800 C 15.130 295.013,15.580 295.188,15.800 295.188 C 16.020 295.188,15.930 295.013,15.600 294.800 C 15.270 294.587,15.135 294.409,15.300 294.406 C 15.664 294.399,14.109 292.800,13.738 292.800 C 13.594 292.800,13.802 293.160,14.200 293.600 M16.576 296.213 C 17.004 296.536,17.201 296.800,17.015 296.800 C 16.830 296.800,17.093 297.160,17.600 297.600 C 18.649 298.510,18.984 298.622,18.548 297.917 C 17.889 296.850,16.631 295.601,16.228 295.613 C 15.993 295.620,16.149 295.890,16.576 296.213 M19.200 299.025 C 19.200 299.325,20.273 300.400,20.571 300.400 C 21.080 300.400,20.751 299.762,20.000 299.293 C 19.560 299.018,19.200 298.898,19.200 299.025 M42.800 314.000 C 42.800 314.220,43.070 314.400,43.400 314.400 C 43.730 314.400,44.000 314.220,44.000 314.000 C 44.000 313.780,43.730 313.600,43.400 313.600 C 43.070 313.600,42.800 313.780,42.800 314.000 M47.600 315.600 C 47.600 315.820,48.005 315.997,48.500 315.994 C 49.228 315.989,49.285 315.914,48.800 315.600 C 48.024 315.099,47.600 315.099,47.600 315.600 M50.600 316.400 C 50.736 316.620,51.242 316.797,51.724 316.794 C 52.436 316.789,52.488 316.715,52.000 316.400 C 51.212 315.891,50.285 315.891,50.600 316.400 M54.400 317.153 C 54.400 317.348,54.924 317.485,55.565 317.459 C 56.206 317.433,56.646 317.274,56.542 317.106 C 56.278 316.679,54.400 316.721,54.400 317.153 " stroke="none" fill="#bcecfc" fill-rule="evenodd"></path><path id="path1" d="M159.473 60.255 C 159.853 60.835,160.231 61.106,160.314 60.858 C 160.397 60.610,160.193 60.136,159.861 59.804 C 158.916 58.859,158.713 59.095,159.473 60.255 M204.008 102.190 C 203.730 102.526,203.221 102.800,202.878 102.800 C 201.940 102.800,196.741 104.611,194.705 105.647 C 194.323 105.841,193.738 106.000,193.405 106.000 C 193.072 106.000,192.800 106.180,192.800 106.400 C 192.800 106.620,192.559 106.800,192.264 106.800 C 190.122 106.800,177.477 114.546,171.400 119.581 C 169.336 121.291,161.027 129.729,159.893 131.265 C 159.299 132.071,158.577 132.971,158.290 133.265 C 158.003 133.559,156.785 135.240,155.584 137.000 C 154.383 138.760,153.265 140.260,153.100 140.333 C 152.935 140.407,152.800 140.635,152.800 140.841 C 152.800 141.046,152.091 142.381,151.225 143.807 C 150.358 145.233,149.816 146.400,150.020 146.400 C 150.365 146.400,152.400 143.487,152.400 142.993 C 152.400 141.562,160.988 130.575,165.994 125.600 C 172.181 119.452,184.196 110.400,186.170 110.400 C 186.277 110.400,187.228 109.895,188.282 109.277 C 189.337 108.659,191.010 107.834,192.000 107.444 C 194.349 106.518,196.428 105.623,197.295 105.166 C 197.677 104.965,198.264 104.800,198.600 104.800 C 198.936 104.800,199.523 104.632,199.905 104.427 C 200.287 104.221,201.450 103.823,202.490 103.542 C 203.529 103.261,204.478 102.774,204.599 102.459 C 204.917 101.629,204.595 101.482,204.008 102.190 M85.500 147.100 C 97.215 147.159,116.385 147.159,128.100 147.100 C 139.815 147.041,130.230 146.993,106.800 146.993 C 83.370 146.993,73.785 147.041,85.500 147.100 M65.412 185.181 C 65.287 185.383,64.873 185.540,64.492 185.529 C 61.617 185.446,56.000 185.745,56.000 185.980 C 56.000 186.140,55.174 186.302,54.165 186.340 C 53.156 186.378,51.998 186.587,51.592 186.805 C 51.185 187.022,50.211 187.200,49.426 187.200 C 48.555 187.200,47.998 187.395,47.994 187.700 C 47.989 188.066,47.895 188.054,47.642 187.655 C 47.443 187.341,47.234 187.283,47.148 187.518 C 47.067 187.743,46.640 187.988,46.200 188.063 C 45.760 188.139,45.268 188.380,45.106 188.600 C 44.930 188.839,44.810 188.775,44.806 188.439 C 44.802 188.062,44.555 188.160,44.053 188.739 C 43.642 189.213,42.833 189.600,42.253 189.600 C 41.674 189.600,41.200 189.780,41.200 190.000 C 41.200 190.220,40.660 190.400,40.000 190.400 C 39.340 190.400,38.800 190.547,38.800 190.726 C 38.800 191.135,35.719 192.800,34.962 192.800 C 34.653 192.800,34.400 192.995,34.400 193.233 C 34.400 193.472,34.177 193.592,33.904 193.501 C 33.631 193.410,33.166 193.577,32.871 193.872 C 32.577 194.166,32.166 194.302,31.958 194.174 C 31.750 194.046,31.630 194.156,31.690 194.420 C 31.751 194.683,31.069 195.282,30.176 195.750 C 29.282 196.217,28.046 197.003,27.429 197.495 C 26.811 197.987,26.143 198.288,25.943 198.165 C 25.743 198.041,25.630 198.089,25.690 198.270 C 25.751 198.452,25.669 198.649,25.509 198.709 C 24.968 198.912,23.200 200.833,23.200 201.218 C 23.200 201.428,23.009 201.600,22.776 201.600 C 22.543 201.600,22.481 201.392,22.638 201.138 C 22.821 200.843,22.747 200.785,22.435 200.978 C 22.167 201.144,22.047 201.381,22.170 201.503 C 22.554 201.887,21.539 202.800,20.727 202.800 C 20.301 202.800,20.043 202.945,20.152 203.123 C 20.262 203.301,19.881 203.796,19.306 204.223 C 17.787 205.351,16.800 206.475,16.800 207.075 C 16.800 207.364,16.665 207.601,16.500 207.603 C 16.335 207.604,15.772 208.234,15.248 209.003 C 14.725 209.771,14.071 210.400,13.795 210.400 C 13.519 210.400,13.194 210.778,13.074 211.240 C 12.953 211.702,12.681 211.973,12.469 211.843 C 12.257 211.712,11.977 211.883,11.846 212.223 C 11.712 212.573,11.779 212.737,12.000 212.600 C 12.224 212.462,12.286 212.631,12.146 212.996 C 12.011 213.347,11.805 213.538,11.687 213.421 C 11.275 213.009,10.450 214.065,10.692 214.695 C 10.867 215.151,10.786 215.239,10.406 215.004 C 10.101 214.815,9.973 214.833,10.105 215.046 C 10.379 215.490,9.166 218.235,8.600 218.449 C 8.380 218.532,8.255 218.764,8.321 218.963 C 8.388 219.163,8.289 219.433,8.102 219.563 C 7.915 219.694,7.264 220.832,6.656 222.092 C 6.047 223.353,5.377 224.490,5.168 224.620 C 4.958 224.749,4.891 225.023,5.017 225.228 C 5.144 225.432,5.057 225.600,4.824 225.600 C 4.591 225.600,4.400 226.140,4.400 226.800 C 4.400 227.460,4.220 228.000,4.000 228.000 C 3.780 228.000,3.600 228.450,3.600 229.000 C 3.600 229.550,3.420 230.000,3.200 230.000 C 2.980 230.000,2.800 230.450,2.800 231.000 C 2.800 231.550,2.601 232.000,2.357 232.000 C 2.114 232.000,2.016 232.265,2.140 232.588 C 2.264 232.912,2.105 233.438,1.787 233.756 C 1.344 234.199,1.324 234.383,1.704 234.537 C 2.069 234.686,2.080 234.826,1.744 235.070 C 1.293 235.397,1.046 236.530,0.495 240.800 C -0.108 245.474,0.228 265.126,0.920 265.636 C 1.096 265.766,1.267 266.306,1.301 266.836 C 1.334 267.366,1.500 267.897,1.668 268.016 C 1.837 268.134,2.018 268.809,2.072 269.516 C 2.126 270.222,2.312 270.800,2.485 270.800 C 2.658 270.800,2.800 271.441,2.800 272.224 C 2.800 273.071,2.962 273.547,3.200 273.400 C 3.427 273.260,3.600 273.596,3.600 274.176 C 3.600 274.739,3.825 275.203,4.100 275.206 C 4.433 275.210,4.400 275.342,4.000 275.600 C 3.600 275.858,3.567 275.990,3.900 275.994 C 4.175 275.997,4.400 276.270,4.400 276.600 C 4.400 276.930,4.535 277.201,4.700 277.203 C 5.106 277.207,6.000 279.186,6.000 280.080 C 6.000 280.476,6.180 280.800,6.400 280.800 C 6.620 280.800,6.800 281.216,6.800 281.725 C 6.800 282.233,7.160 283.036,7.600 283.508 C 8.040 283.980,8.400 284.578,8.400 284.836 C 8.400 285.095,8.777 285.633,9.237 286.032 C 9.697 286.431,9.968 286.928,9.839 287.137 C 9.710 287.345,9.899 287.629,10.260 287.768 C 10.620 287.906,10.802 288.132,10.664 288.270 C 10.526 288.407,10.877 288.950,11.444 289.476 C 12.340 290.306,12.637 290.888,12.769 292.073 C 12.786 292.223,13.173 292.464,13.629 292.609 C 14.123 292.766,14.371 293.098,14.243 293.431 C 14.125 293.739,14.157 293.971,14.314 293.948 C 15.107 293.830,15.620 294.044,15.400 294.400 C 15.264 294.620,15.354 294.800,15.600 294.800 C 15.846 294.800,15.936 294.980,15.800 295.200 C 15.664 295.420,15.801 295.600,16.104 295.600 C 16.703 295.600,18.343 297.308,18.502 298.098 C 18.556 298.367,19.095 298.837,19.700 299.143 C 20.305 299.449,20.800 300.016,20.800 300.401 C 20.800 300.805,21.314 301.316,22.009 301.604 C 22.673 301.879,23.331 302.289,23.470 302.514 C 23.626 302.766,23.523 302.799,23.200 302.600 C 22.854 302.386,22.773 302.433,22.962 302.738 C 23.119 302.992,23.512 303.200,23.836 303.200 C 24.160 303.200,24.524 303.457,24.644 303.771 C 24.766 304.088,25.221 304.273,25.668 304.187 C 26.267 304.072,26.411 304.193,26.232 304.660 C 26.061 305.106,26.167 305.221,26.595 305.057 C 26.969 304.914,27.200 305.054,27.200 305.423 C 27.200 305.763,27.704 306.121,28.374 306.255 C 29.020 306.384,29.649 306.751,29.772 307.070 C 29.894 307.389,30.176 307.539,30.397 307.402 C 30.619 307.265,30.800 307.428,30.800 307.764 C 30.800 308.128,31.030 308.287,31.369 308.156 C 31.695 308.031,32.129 308.293,32.383 308.769 C 32.664 309.294,33.228 309.602,33.914 309.606 C 34.762 309.611,34.869 309.697,34.400 310.000 C 33.932 310.302,34.043 310.389,34.900 310.394 C 35.505 310.397,36.000 310.580,36.000 310.800 C 36.000 311.020,36.354 311.200,36.786 311.200 C 37.218 311.200,38.343 311.625,39.286 312.144 C 40.229 312.664,41.250 313.000,41.556 312.892 C 41.895 312.773,42.003 312.872,41.832 313.148 C 41.648 313.446,41.969 313.600,42.776 313.600 C 43.449 313.600,44.000 313.780,44.000 314.000 C 44.000 314.220,44.270 314.400,44.600 314.400 C 44.930 314.400,45.200 314.562,45.200 314.760 C 45.200 314.958,45.965 315.211,46.900 315.324 C 47.835 315.436,49.410 315.743,50.400 316.005 C 51.390 316.268,53.145 316.570,54.301 316.678 C 55.456 316.786,56.323 317.001,56.227 317.157 C 56.130 317.313,56.445 317.456,56.926 317.476 C 57.407 317.497,59.019 317.556,60.508 317.608 C 61.998 317.661,63.314 317.860,63.432 318.052 C 63.550 318.243,63.862 318.397,64.124 318.394 C 64.410 318.390,64.361 318.233,64.000 318.000 C 63.540 317.703,63.679 317.612,64.600 317.612 C 65.521 317.612,65.660 317.703,65.200 318.000 C 64.839 318.233,64.790 318.390,65.076 318.394 C 65.338 318.397,65.664 318.220,65.800 318.000 C 65.962 317.738,78.461 317.600,101.994 317.600 L 137.941 317.600 138.147 314.300 C 138.431 309.746,138.811 307.070,139.239 306.620 C 139.437 306.411,139.600 305.734,139.600 305.115 C 139.600 304.496,139.759 303.677,139.953 303.295 C 140.148 302.913,140.489 302.150,140.713 301.600 C 140.936 301.050,141.407 299.943,141.759 299.140 C 142.112 298.336,142.400 297.571,142.400 297.439 C 142.400 297.161,139.951 294.910,137.727 293.142 C 133.378 289.686,131.558 288.003,124.187 280.623 C 119.780 276.210,115.726 272.060,115.179 271.400 C 114.632 270.740,112.532 268.272,110.512 265.915 C 108.492 263.559,105.845 260.229,104.629 258.515 C 103.414 256.802,101.310 253.870,99.954 252.000 C 93.484 243.077,82.555 222.962,79.200 213.800 C 79.039 213.360,78.720 212.550,78.491 212.000 C 75.755 205.423,73.865 199.849,71.371 191.000 C 69.882 185.720,69.242 184.006,69.206 185.200 C 69.190 185.733,69.144 185.733,68.794 185.200 C 68.444 184.667,68.356 184.667,68.006 185.200 C 67.789 185.530,67.609 185.614,67.606 185.387 C 67.598 184.864,65.717 184.687,65.412 185.181 " stroke="none" fill="#ace4fc" fill-rule="evenodd"></path><path id="path2" d="M238.800 220.627 C 232.943 221.449,227.139 223.217,222.240 225.672 C 219.905 226.842,215.220 229.567,214.800 229.999 C 214.690 230.112,213.880 230.730,213.000 231.373 C 204.804 237.356,196.172 249.869,193.527 259.600 C 192.056 265.013,191.600 267.709,191.337 272.539 L 191.123 276.478 189.861 276.259 C 189.168 276.138,186.980 275.747,185.000 275.390 C 177.403 274.020,167.679 275.630,161.057 279.354 C 160.146 279.867,158.597 280.740,157.615 281.295 C 151.005 285.034,144.415 293.166,141.326 301.400 C 140.996 302.280,140.576 303.360,140.393 303.800 C 139.301 306.425,137.713 318.869,138.435 319.133 C 138.636 319.207,138.800 320.422,138.800 321.833 C 138.800 323.278,138.975 324.400,139.200 324.400 C 139.776 324.400,139.694 325.496,139.100 325.735 C 138.700 325.896,138.700 325.943,139.100 325.968 C 139.375 325.986,139.600 326.461,139.600 327.024 C 139.600 327.604,139.773 327.940,140.000 327.800 C 140.233 327.656,140.400 328.063,140.400 328.776 C 140.400 329.449,140.578 330.000,140.796 330.000 C 141.013 330.000,141.190 330.405,141.190 330.900 C 141.187 332.495,141.327 333.169,141.621 332.987 C 141.780 332.889,142.143 333.091,142.429 333.435 C 142.858 333.952,142.848 334.124,142.374 334.424 C 141.935 334.702,142.023 334.789,142.747 334.794 C 143.487 334.799,143.649 334.970,143.489 335.581 C 143.377 336.010,143.469 336.423,143.693 336.498 C 143.918 336.573,144.123 336.999,144.151 337.446 C 144.178 337.893,144.515 338.574,144.900 338.958 C 145.285 339.343,145.600 339.835,145.600 340.052 C 145.600 340.269,145.780 340.336,146.000 340.200 C 146.220 340.064,146.400 340.223,146.400 340.554 C 146.400 340.885,147.312 342.053,148.427 343.151 C 149.541 344.248,150.428 345.252,150.397 345.383 C 150.366 345.513,150.429 345.841,150.538 346.110 C 150.692 346.490,150.744 346.488,150.768 346.100 C 150.786 345.825,150.999 345.600,151.243 345.600 C 151.486 345.600,151.578 345.879,151.447 346.221 C 151.303 346.597,151.375 346.739,151.630 346.582 C 152.146 346.263,153.600 347.516,153.600 348.280 C 153.600 348.587,153.913 348.783,154.300 348.718 C 154.767 348.639,155.042 348.899,155.128 349.500 C 155.217 350.126,155.527 350.400,156.148 350.400 C 157.180 350.400,159.192 351.258,159.197 351.700 C 159.199 351.865,159.470 352.000,159.800 352.000 C 160.130 352.000,160.400 352.180,160.400 352.400 C 160.400 352.620,160.625 352.755,160.900 352.700 C 161.175 352.645,161.351 352.838,161.290 353.130 C 161.230 353.421,161.365 353.545,161.590 353.406 C 161.816 353.267,162.003 353.388,162.006 353.676 C 162.011 354.060,162.113 354.041,162.387 353.607 C 162.702 353.109,162.943 353.188,163.889 354.094 C 164.650 354.823,165.286 355.103,165.848 354.956 C 166.306 354.836,166.933 354.977,167.240 355.269 C 167.997 355.987,170.400 356.821,170.400 356.365 C 170.400 356.164,170.190 356.000,169.933 356.000 C 169.677 356.000,169.561 355.906,169.676 355.791 C 169.998 355.469,171.222 356.040,170.996 356.407 C 170.886 356.584,171.112 356.679,171.498 356.617 C 171.884 356.555,172.500 356.659,172.868 356.849 C 173.294 357.069,173.591 357.028,173.688 356.735 C 173.794 356.418,174.141 356.472,174.820 356.912 C 175.627 357.434,178.245 357.619,179.600 357.249 C 179.710 357.219,202.480 357.193,230.200 357.193 C 257.920 357.192,280.815 357.053,281.079 356.885 C 281.816 356.414,281.240 355.919,278.200 354.409 C 258.183 344.467,239.008 323.976,231.215 304.200 C 230.695 302.880,230.151 301.620,230.007 301.400 C 229.862 301.180,229.499 300.190,229.200 299.200 C 228.901 298.210,228.541 297.220,228.400 297.000 C 228.259 296.780,227.911 295.790,227.626 294.800 C 227.341 293.810,226.962 292.550,226.784 292.000 C 226.392 290.791,225.020 285.001,224.436 282.097 C 221.951 269.743,222.626 251.057,226.007 238.588 C 226.483 236.835,227.037 234.724,227.238 233.898 C 227.552 232.613,228.853 228.991,230.003 226.200 C 230.185 225.760,230.565 224.832,230.848 224.137 C 231.220 223.223,231.754 222.761,232.781 222.462 C 241.830 219.835,251.915 219.979,261.800 222.878 C 264.332 223.620,265.787 224.223,271.600 226.941 C 274.999 228.530,280.493 232.604,284.356 236.400 C 288.216 240.193,288.545 240.563,290.393 243.200 C 290.932 243.970,291.588 244.821,291.849 245.091 C 293.371 246.662,299.200 259.836,299.200 261.704 C 299.200 263.039,300.227 263.291,302.876 262.604 C 314.764 259.524,327.108 263.967,336.555 274.729 C 337.343 275.627,337.914 275.957,338.355 275.770 C 342.586 273.973,354.524 274.411,360.600 276.586 C 368.183 279.301,374.548 283.793,379.607 290.000 C 380.593 291.210,381.535 292.260,381.700 292.333 C 381.865 292.407,382.000 292.649,382.000 292.872 C 382.000 293.585,383.635 295.600,384.213 295.600 C 384.617 295.600,384.547 295.350,383.962 294.700 C 383.517 294.205,382.047 292.360,380.696 290.600 C 375.935 284.399,372.592 281.694,364.800 277.736 C 363.370 277.009,361.896 276.412,361.524 276.407 C 361.152 276.403,360.748 276.240,360.627 276.044 C 360.506 275.849,359.821 275.589,359.104 275.468 C 358.387 275.347,356.720 275.013,355.400 274.726 C 352.451 274.084,343.452 274.042,340.211 274.655 C 337.305 275.205,337.365 275.229,335.457 272.761 C 332.782 269.301,325.467 264.176,321.600 263.054 C 314.339 260.946,311.047 260.815,301.536 262.255 L 300.072 262.477 299.026 259.049 C 295.910 248.833,287.374 236.705,279.566 231.400 C 278.595 230.740,277.451 229.885,277.025 229.500 C 276.598 229.115,276.013 228.800,275.725 228.800 C 275.436 228.800,275.200 228.641,275.200 228.448 C 275.200 228.020,267.243 224.116,263.800 222.855 C 257.074 220.391,246.931 219.487,238.800 220.627 " stroke="none" fill="#d4ecfc" fill-rule="evenodd"></path><path id="path3" d="M121.894 42.841 C 121.622 42.988,120.543 43.209,119.495 43.333 C 118.448 43.457,117.413 43.668,117.195 43.803 C 116.978 43.937,116.800 43.857,116.800 43.624 C 116.800 43.391,116.620 43.200,116.400 43.200 C 116.180 43.200,116.045 43.425,116.100 43.700 C 116.167 44.033,115.707 44.187,114.720 44.160 C 113.844 44.137,113.273 44.300,113.320 44.560 C 113.364 44.802,113.130 45.005,112.800 45.011 C 112.470 45.016,111.947 45.179,111.638 45.372 C 111.255 45.612,111.166 45.578,111.359 45.266 C 111.542 44.971,111.423 44.893,111.023 45.046 C 110.683 45.177,110.503 45.443,110.623 45.637 C 110.743 45.832,110.564 45.884,110.224 45.754 C 109.861 45.615,109.506 45.780,109.361 46.156 C 109.227 46.508,108.928 46.679,108.697 46.537 C 108.467 46.394,108.080 46.549,107.838 46.881 C 107.595 47.212,106.948 47.612,106.398 47.768 C 105.639 47.984,105.544 47.952,106.000 47.632 C 106.330 47.401,106.420 47.215,106.200 47.219 C 105.980 47.222,105.451 47.490,105.024 47.813 C 104.596 48.136,104.406 48.400,104.600 48.400 C 104.794 48.400,104.605 48.655,104.179 48.966 C 103.604 49.386,103.329 49.412,103.109 49.066 C 102.917 48.765,102.810 48.856,102.806 49.324 C 102.803 49.722,102.620 49.936,102.400 49.800 C 102.180 49.664,102.000 49.743,102.000 49.976 C 102.000 50.209,101.640 50.400,101.200 50.400 C 100.659 50.400,100.400 50.667,100.400 51.224 C 100.400 51.677,100.232 51.943,100.026 51.816 C 99.820 51.689,99.152 52.083,98.541 52.692 C 97.930 53.302,97.288 53.755,97.115 53.700 C 96.942 53.645,96.800 53.924,96.800 54.320 C 96.800 55.089,96.079 56.000,95.471 56.000 C 95.268 56.000,95.349 55.685,95.651 55.300 C 96.149 54.666,96.134 54.651,95.500 55.149 C 95.115 55.451,94.800 55.957,94.800 56.273 C 94.800 56.589,94.620 56.736,94.400 56.600 C 94.180 56.464,94.000 56.713,94.000 57.154 C 94.000 57.594,93.666 58.190,93.257 58.477 C 92.849 58.765,92.386 59.408,92.229 59.906 C 92.071 60.404,91.775 60.708,91.571 60.582 C 91.367 60.456,91.197 60.768,91.194 61.276 C 91.189 62.019,91.112 62.083,90.800 61.600 C 90.498 61.132,90.411 61.243,90.406 62.100 C 90.403 62.705,90.220 63.200,90.000 63.200 C 89.780 63.200,89.600 63.571,89.600 64.024 C 89.600 64.477,89.420 64.736,89.200 64.600 C 88.971 64.458,88.800 64.818,88.800 65.443 C 88.800 66.043,88.689 66.422,88.552 66.286 C 88.252 65.986,87.146 67.025,87.283 67.479 C 87.336 67.655,87.143 68.700,86.853 69.800 C 85.892 73.445,84.724 75.284,83.894 74.454 C 83.639 74.199,82.174 74.000,80.553 74.000 C 78.618 74.000,77.600 73.835,77.465 73.500 C 77.304 73.100,77.257 73.100,77.232 73.500 C 77.210 73.849,76.356 74.000,74.400 74.000 C 72.800 74.000,71.600 74.171,71.600 74.400 C 71.600 74.620,70.975 74.800,70.212 74.800 C 69.449 74.800,68.234 75.131,67.512 75.535 C 66.790 75.939,65.975 76.194,65.700 76.102 C 65.425 76.009,65.200 76.128,65.200 76.367 C 65.200 76.605,64.964 76.800,64.675 76.800 C 64.387 76.800,63.764 77.160,63.292 77.600 C 62.820 78.040,62.286 78.400,62.106 78.400 C 61.925 78.400,61.480 78.715,61.117 79.100 C 60.754 79.485,60.219 79.999,59.928 80.243 C 58.764 81.219,57.600 82.845,57.594 83.503 C 57.589 84.099,57.532 84.113,57.200 83.600 C 56.942 83.200,56.810 83.167,56.806 83.500 C 56.803 83.775,56.440 84.000,56.000 84.000 C 55.560 84.000,55.200 83.810,55.200 83.578 C 55.200 82.805,40.881 83.639,40.378 84.442 C 40.255 84.637,39.670 84.836,39.078 84.885 C 38.485 84.934,38.000 85.115,38.000 85.287 C 38.000 85.459,37.640 85.600,37.200 85.600 C 36.760 85.600,36.400 85.780,36.400 86.000 C 36.400 86.220,36.040 86.400,35.600 86.400 C 35.160 86.400,34.800 86.580,34.800 86.800 C 34.800 87.020,34.440 87.200,34.000 87.200 C 33.560 87.200,33.200 87.380,33.200 87.600 C 33.200 87.820,32.964 88.000,32.675 88.000 C 32.387 88.000,31.764 88.360,31.292 88.800 C 30.820 89.240,30.246 89.600,30.017 89.600 C 29.788 89.600,29.600 89.780,29.600 90.000 C 29.600 90.220,29.300 90.400,28.933 90.400 C 28.567 90.400,28.376 90.509,28.509 90.642 C 28.642 90.776,27.997 91.465,27.076 92.175 C 26.068 92.951,25.447 93.734,25.519 94.139 C 25.584 94.510,25.433 94.765,25.182 94.706 C 24.931 94.648,24.517 94.957,24.263 95.394 C 24.008 95.831,23.485 96.482,23.100 96.841 C 22.715 97.200,22.400 97.788,22.400 98.147 C 22.400 98.506,22.220 98.800,22.000 98.800 C 21.780 98.800,21.600 99.160,21.600 99.600 C 21.600 100.040,21.420 100.400,21.200 100.400 C 20.980 100.400,20.800 100.760,20.800 101.200 C 20.800 101.640,20.620 102.000,20.400 102.000 C 20.180 102.000,20.000 102.360,20.000 102.800 C 20.000 103.240,19.820 103.600,19.600 103.600 C 19.380 103.600,19.200 104.320,19.200 105.200 C 19.200 106.080,19.020 106.800,18.800 106.800 C 18.580 106.800,18.400 107.700,18.400 108.800 C 18.400 109.917,18.216 110.800,17.984 110.800 C 17.717 110.800,17.589 112.446,17.627 115.400 C 17.660 117.930,17.847 120.000,18.043 120.000 C 18.239 120.000,18.400 120.799,18.400 121.776 C 18.400 122.753,18.580 123.664,18.800 123.800 C 19.020 123.936,19.200 124.487,19.200 125.024 C 19.200 125.561,19.380 126.000,19.600 126.000 C 19.820 126.000,20.000 126.540,20.000 127.200 C 20.000 127.860,20.180 128.400,20.400 128.400 C 20.620 128.400,20.800 128.760,20.800 129.200 C 20.800 129.640,20.980 130.000,21.200 130.000 C 21.420 130.000,21.600 130.236,21.600 130.525 C 21.600 130.813,21.960 131.436,22.400 131.908 C 22.840 132.380,23.200 132.958,23.200 133.193 C 23.200 134.073,30.475 141.305,31.515 141.458 C 31.884 141.512,32.249 141.746,32.326 141.978 C 32.403 142.210,32.812 142.400,33.233 142.400 C 33.655 142.400,34.000 142.580,34.000 142.800 C 34.000 143.020,34.360 143.200,34.800 143.200 C 35.240 143.200,35.600 143.380,35.600 143.600 C 35.600 143.820,35.960 144.000,36.400 144.000 C 36.840 144.000,37.200 144.180,37.200 144.400 C 37.200 144.620,37.740 144.800,38.400 144.800 C 39.060 144.800,39.600 144.980,39.600 145.200 C 39.600 145.420,40.241 145.600,41.024 145.600 C 41.871 145.600,42.347 145.762,42.200 146.000 C 42.043 146.255,43.196 146.400,45.376 146.400 C 47.259 146.400,48.800 146.540,48.800 146.711 C 48.800 146.882,71.345 146.961,98.900 146.886 L 149.000 146.751 150.000 145.599 C 150.550 144.965,151.446 143.581,151.990 142.523 C 152.535 141.465,153.077 140.510,153.195 140.400 C 153.312 140.290,154.390 138.760,155.588 137.000 C 156.787 135.240,158.003 133.559,158.290 133.265 C 158.577 132.971,159.299 132.071,159.893 131.265 C 161.027 129.729,169.336 121.291,171.400 119.581 C 177.477 114.546,190.122 106.800,192.264 106.800 C 192.559 106.800,192.800 106.620,192.800 106.400 C 192.800 106.180,193.072 106.000,193.405 106.000 C 193.738 106.000,194.323 105.841,194.705 105.647 C 196.728 104.618,201.938 102.800,202.865 102.800 C 203.908 102.800,205.063 101.276,204.254 100.966 C 203.895 100.827,203.600 100.384,203.600 99.980 C 203.600 99.576,203.200 98.965,202.711 98.623 C 202.222 98.280,202.042 98.000,202.311 98.000 C 203.141 98.000,202.850 97.306,201.917 97.063 C 201.432 96.936,201.161 96.706,201.315 96.552 C 201.469 96.398,201.224 96.012,200.771 95.694 C 200.317 95.377,200.032 94.894,200.137 94.621 C 200.242 94.348,199.967 93.871,199.526 93.562 C 199.086 93.253,198.359 92.689,197.911 92.308 C 197.463 91.928,196.940 91.713,196.748 91.832 C 196.557 91.950,196.386 91.632,196.368 91.124 C 196.351 90.616,196.249 90.415,196.142 90.678 C 196.018 90.985,195.505 90.734,194.715 89.978 C 194.036 89.330,193.238 88.800,192.941 88.800 C 192.643 88.800,192.400 88.601,192.400 88.357 C 192.400 88.114,192.123 88.021,191.785 88.150 C 191.435 88.285,191.072 88.131,190.942 87.793 C 190.817 87.467,190.308 87.200,189.811 87.200 C 189.314 87.200,188.479 86.862,187.954 86.450 C 186.955 85.664,186.791 85.600,185.776 85.600 C 185.433 85.600,185.236 85.465,185.338 85.300 C 185.439 85.135,184.775 84.951,183.861 84.890 C 182.948 84.830,181.660 84.606,181.000 84.393 C 179.627 83.949,170.781 84.045,171.062 84.500 C 171.164 84.665,170.832 84.813,170.324 84.830 C 169.816 84.846,168.995 84.935,168.500 85.027 C 167.534 85.207,167.432 84.670,167.553 80.040 C 167.578 79.073,167.435 78.083,167.234 77.840 C 167.033 77.598,166.798 76.590,166.711 75.600 C 166.624 74.610,166.339 73.408,166.078 72.929 C 165.817 72.450,165.723 71.745,165.869 71.363 C 166.051 70.891,165.987 70.761,165.668 70.958 C 165.210 71.241,165.029 70.758,165.179 69.660 C 165.227 69.313,165.065 69.233,164.727 69.437 C 164.371 69.651,164.395 69.509,164.800 69.000 C 165.150 68.561,165.191 68.372,164.900 68.547 C 164.551 68.757,164.400 68.531,164.400 67.800 C 164.400 67.204,164.228 66.859,164.000 67.000 C 163.772 67.141,163.600 66.796,163.600 66.200 C 163.600 65.624,163.439 65.252,163.242 65.374 C 163.045 65.496,162.777 65.317,162.646 64.977 C 162.486 64.559,162.567 64.456,162.897 64.660 C 163.166 64.826,162.986 64.454,162.498 63.834 C 162.010 63.214,161.709 62.547,161.829 62.353 C 161.949 62.159,161.772 62.000,161.436 62.000 C 161.077 62.000,160.914 61.769,161.040 61.440 C 161.173 61.092,161.011 60.903,160.613 60.940 C 160.259 60.973,159.662 60.465,159.285 59.812 C 158.908 59.159,158.373 58.379,158.096 58.080 C 157.819 57.780,157.692 57.375,157.813 57.179 C 157.934 56.984,157.575 56.709,157.016 56.568 C 156.457 56.428,156.000 56.142,156.000 55.933 C 156.000 55.724,156.180 55.664,156.400 55.800 C 156.620 55.936,156.800 55.857,156.800 55.624 C 156.800 55.391,156.440 55.200,156.000 55.200 C 155.560 55.200,155.200 54.936,155.200 54.613 C 155.200 54.279,154.963 54.116,154.652 54.236 C 154.350 54.351,153.992 54.156,153.856 53.802 C 153.694 53.381,153.767 53.256,154.066 53.441 C 154.348 53.615,154.414 53.546,154.238 53.262 C 154.081 53.008,153.593 52.800,153.153 52.800 C 152.713 52.800,152.464 52.620,152.600 52.400 C 152.736 52.180,152.432 51.986,151.924 51.968 C 151.416 51.951,151.223 51.847,151.496 51.736 C 151.873 51.584,151.850 51.393,151.399 50.942 C 151.073 50.616,150.637 50.453,150.431 50.581 C 150.224 50.709,149.925 50.602,149.766 50.345 C 149.573 50.033,149.651 49.984,150.000 50.200 C 150.346 50.414,150.427 50.367,150.238 50.062 C 150.081 49.808,149.503 49.600,148.953 49.600 C 148.291 49.600,148.051 49.442,148.242 49.132 C 148.438 48.815,148.311 48.748,147.850 48.925 C 147.423 49.089,147.082 48.958,146.933 48.570 C 146.799 48.219,146.436 48.054,146.092 48.186 C 145.569 48.387,145.562 48.326,146.043 47.740 C 146.542 47.132,146.506 47.085,145.700 47.293 C 145.205 47.421,144.800 47.381,144.800 47.206 C 144.800 47.030,144.343 46.772,143.784 46.632 C 143.224 46.491,142.883 46.190,143.024 45.962 C 143.165 45.733,143.037 45.580,142.740 45.621 C 141.619 45.775,140.761 45.587,140.978 45.235 C 141.102 45.034,140.753 44.920,140.202 44.980 C 139.569 45.049,139.200 44.889,139.200 44.545 C 139.200 44.245,139.026 44.000,138.813 44.000 C 138.599 44.000,138.534 44.315,138.666 44.700 C 138.861 45.264,138.787 45.244,138.287 44.601 C 137.945 44.161,137.532 43.934,137.370 44.097 C 137.207 44.260,136.797 44.170,136.460 43.897 C 135.953 43.486,135.900 43.504,136.153 44.000 C 136.321 44.330,136.191 44.271,135.863 43.869 C 135.372 43.267,134.890 43.177,133.133 43.361 C 131.690 43.513,131.259 43.467,131.800 43.221 C 132.240 43.020,132.420 42.820,132.200 42.776 C 131.102 42.555,122.321 42.611,121.894 42.841 " stroke="none" fill="#9cdcf4" fill-rule="evenodd"></path><path id="path4" d="M240.400 220.996 C 233.439 221.875,231.511 222.509,230.848 224.137 C 230.565 224.832,230.185 225.760,230.003 226.200 C 228.853 228.991,227.552 232.613,227.238 233.898 C 227.037 234.724,226.483 236.835,226.007 238.588 C 222.626 251.057,221.951 269.743,224.436 282.097 C 225.020 285.001,226.392 290.791,226.784 292.000 C 226.962 292.550,227.341 293.810,227.626 294.800 C 227.911 295.790,228.259 296.780,228.400 297.000 C 228.541 297.220,228.901 298.210,229.200 299.200 C 229.499 300.190,229.862 301.180,230.007 301.400 C 230.151 301.620,230.695 302.880,231.215 304.200 C 239.008 323.976,258.183 344.467,278.200 354.409 C 281.240 355.919,281.816 356.414,281.079 356.885 C 280.815 357.053,257.848 357.190,230.039 357.190 C 202.231 357.189,179.383 357.283,179.266 357.400 C 178.861 357.805,353.716 357.318,356.000 356.908 C 357.210 356.691,358.020 356.485,357.800 356.450 C 357.580 356.416,357.653 356.228,357.962 356.032 C 358.272 355.836,358.948 355.752,359.464 355.846 C 359.981 355.940,360.890 355.698,361.484 355.308 C 362.078 354.919,362.663 354.637,362.782 354.683 C 363.115 354.809,364.974 354.309,365.200 354.033 C 365.310 353.899,366.255 353.358,367.300 352.832 C 368.345 352.305,369.200 351.723,369.200 351.537 C 369.200 351.352,369.571 351.200,370.024 351.200 C 370.477 351.200,370.736 351.020,370.600 350.800 C 370.464 350.580,370.729 350.400,371.189 350.400 C 371.649 350.400,372.128 350.131,372.254 349.802 C 372.381 349.474,372.606 349.280,372.755 349.372 C 372.905 349.465,373.446 349.014,373.958 348.370 C 374.471 347.727,375.058 347.200,375.263 347.200 C 375.806 347.200,377.600 345.321,377.600 344.752 C 377.600 344.485,377.711 344.378,377.848 344.514 C 378.143 344.809,379.200 343.828,379.200 343.259 C 379.200 343.041,379.785 342.279,380.500 341.566 C 382.418 339.655,383.607 337.935,383.325 337.478 C 383.184 337.251,383.277 337.200,383.538 337.362 C 383.812 337.531,384.000 337.393,384.000 337.024 C 384.000 336.681,384.191 336.400,384.424 336.400 C 384.657 336.400,384.745 336.235,384.620 336.032 C 384.495 335.830,384.619 335.421,384.896 335.123 C 385.173 334.825,385.459 334.317,385.532 333.994 C 385.605 333.672,385.853 333.291,386.083 333.149 C 386.314 333.006,386.378 332.688,386.226 332.442 C 386.074 332.196,386.231 331.886,386.575 331.754 C 386.972 331.602,387.200 331.019,387.200 330.157 C 387.200 329.411,387.380 328.800,387.600 328.800 C 387.820 328.800,388.000 328.350,388.000 327.800 C 388.000 327.250,388.149 326.800,388.331 326.800 C 388.513 326.800,388.648 326.080,388.631 325.200 C 388.614 324.320,388.780 323.540,389.000 323.467 C 389.546 323.285,389.647 307.602,389.102 307.716 C 388.882 307.762,388.655 306.990,388.598 306.000 C 388.455 303.548,388.449 303.523,388.037 303.777 C 387.838 303.900,387.766 303.652,387.877 303.226 C 388.095 302.395,386.861 299.200,386.323 299.200 C 386.145 299.200,386.030 299.065,386.066 298.900 C 386.212 298.230,385.490 296.421,385.157 296.626 C 384.961 296.748,384.800 296.609,384.800 296.318 C 384.800 296.028,384.421 295.612,383.959 295.395 C 383.496 295.178,382.821 294.460,382.459 293.800 C 382.096 293.140,381.708 292.510,381.595 292.400 C 381.481 292.290,380.585 291.210,379.602 290.000 C 374.562 283.797,368.202 279.307,360.600 276.586 C 354.524 274.411,342.586 273.973,338.355 275.770 C 337.914 275.957,337.343 275.627,336.555 274.729 C 327.108 263.967,314.764 259.524,302.876 262.604 C 300.227 263.291,299.200 263.039,299.200 261.704 C 299.200 259.836,293.371 246.662,291.849 245.091 C 291.588 244.821,290.932 243.970,290.393 243.200 C 288.545 240.563,288.216 240.193,284.356 236.400 C 280.493 232.604,274.999 228.530,271.600 226.941 C 262.071 222.486,261.019 222.167,252.000 221.008 C 246.753 220.334,245.658 220.332,240.400 220.996 M138.123 320.600 C 138.223 322.423,138.800 322.423,138.800 320.600 C 138.800 319.830,138.630 319.200,138.423 319.200 C 138.216 319.200,138.081 319.830,138.123 320.600 M138.800 325.000 C 138.800 325.330,138.980 325.600,139.200 325.600 C 139.420 325.600,139.600 325.330,139.600 325.000 C 139.600 324.670,139.420 324.400,139.200 324.400 C 138.980 324.400,138.800 324.670,138.800 325.000 M139.778 328.035 C 139.631 328.274,139.710 328.670,139.955 328.915 C 140.282 329.242,140.400 329.126,140.400 328.480 C 140.400 327.514,140.192 327.365,139.778 328.035 M141.631 333.308 C 141.904 333.908,142.280 334.400,142.464 334.400 C 143.053 334.400,142.826 333.748,141.967 332.970 C 141.135 332.217,141.134 332.218,141.631 333.308 M142.618 335.171 C 142.492 335.375,142.842 336.050,143.396 336.671 C 143.993 337.340,144.304 337.515,144.159 337.100 C 144.024 336.715,143.771 336.400,143.595 336.400 C 143.419 336.400,143.369 336.040,143.484 335.600 C 143.694 334.797,143.047 334.476,142.618 335.171 M144.814 339.056 C 144.806 339.306,145.154 339.936,145.587 340.456 C 146.303 341.315,146.375 341.331,146.387 340.633 C 146.394 340.212,146.274 339.992,146.121 340.146 C 145.967 340.299,145.614 340.014,145.335 339.513 C 145.056 339.011,144.822 338.805,144.814 339.056 M147.630 342.906 C 147.904 343.508,148.380 344.000,148.688 344.000 C 148.995 344.000,149.165 344.135,149.066 344.300 C 148.966 344.465,149.126 344.823,149.421 345.096 C 150.759 346.332,150.134 344.827,148.719 343.406 C 147.316 341.997,147.189 341.939,147.630 342.906 M151.448 346.722 C 151.339 346.899,151.799 347.251,152.471 347.504 C 153.668 347.956,153.678 347.950,152.984 347.183 C 152.225 346.344,151.767 346.206,151.448 346.722 M157.294 350.914 C 157.675 351.225,157.855 351.625,157.694 351.804 C 157.532 351.982,157.610 352.008,157.868 351.860 C 158.125 351.713,158.575 351.831,158.868 352.123 C 159.699 352.952,162.235 353.765,161.599 352.999 C 161.330 352.674,160.950 352.507,160.755 352.628 C 160.560 352.749,160.400 352.657,160.400 352.424 C 160.400 352.191,160.130 352.000,159.800 352.000 C 159.470 352.000,159.200 351.841,159.200 351.647 C 159.200 351.452,158.885 351.182,158.500 351.046 C 158.115 350.911,157.530 350.698,157.200 350.575 C 156.780 350.417,156.808 350.519,157.294 350.914 M162.245 353.826 C 162.064 354.298,162.190 354.393,162.755 354.214 C 163.227 354.064,163.592 354.203,163.740 354.588 C 163.869 354.925,164.192 355.200,164.457 355.200 C 164.722 355.200,164.517 354.750,164.000 354.200 C 162.907 353.037,162.575 352.966,162.245 353.826 M165.845 355.373 C 165.966 355.688,166.410 355.919,166.832 355.888 C 167.763 355.817,167.833 355.375,166.967 355.043 C 165.957 354.655,165.609 354.758,165.845 355.373 M170.067 356.133 C 170.341 356.427,170.822 356.667,171.135 356.667 C 171.550 356.667,171.506 356.521,170.976 356.133 C 170.575 355.840,170.094 355.600,169.908 355.600 C 169.721 355.600,169.793 355.840,170.067 356.133 M173.600 356.967 C 173.600 357.315,173.885 357.600,174.233 357.600 C 174.582 357.600,174.795 357.386,174.708 357.125 C 174.461 356.383,173.600 356.260,173.600 356.967 " stroke="none" fill="#e3f4fc" fill-rule="evenodd"></path></g></svg>